<?xml version="1.0" encoding="UTF-8"?><svg id="Layer_1" xmlns="http://www.w3.org/2000/svg" viewBox="0 0 115.79 38.67"><g id="Grupo_1"><path id="Trazado_1" d="m12.87.08h.22l12.9,26.94h-5.93l-2.14-4.68H8l-2.06,4.68H0L12.87.08Zm3.35,18.28c-1.22-2.76-2.4-5.57-3.21-7.89-.77,1.84-2.17,5.38-3.28,7.89h6.49Z"/><path id="Trazado_2" d="m37.96,5.24v6.34h8.85v4.68h-8.85v10.76h-5.68V.49h16.18v4.75h-10.51Z"/><path id="Trazado_3" d="m62.76,13.32l-1.4-1.22v14.93h-5.42V.08h.11l12.64,12.76L81.34.08h.11v26.94h-5.42v-14.93l-1.4,1.22c-1.95,2.14-3.94,4.28-5.93,6.38-1.99-2.1-3.94-4.24-5.93-6.38Z"/><path id="Trazado_4" d="m102.81,21.6c-4.44,0-8.04-3.6-8.04-8.04,0-4.44,3.6-8.04,8.04-8.04,2.9,0,5.58,1.56,7,4.08h5.98c-2.18-7.16-9.76-11.2-16.93-9.02-7.16,2.18-11.2,9.76-9.02,16.93,2.18,7.16,9.76,11.2,16.93,9.02,4.32-1.32,7.7-4.7,9.02-9.02h-5.98c-1.42,2.52-4.1,4.09-6.99,4.09Z"/><path id="Trazado_5" d="m84.85,35.46l4.51,3.21,6.73-9.45-.02-.02c-1.71-.71-3.26-1.77-4.55-3.1l-6.67,9.36Z"/></g></svg>