<svg id="Grupo_33" data-name="Grupo 33" xmlns="http://www.w3.org/2000/svg" xmlns:xlink="http://www.w3.org/1999/xlink" width="18.322" height="11.017" viewBox="0 0 18.322 11.017">
  <defs>
    <clipPath id="clip-path">
      <rect id="Rectángulo_62" data-name="Rectángulo 62" width="18.321" height="11.017" fill="#fff"/>
    </clipPath>
  </defs>
  <g id="Grupo_32" data-name="Grupo 32" clip-path="url(#clip-path)">
    <path id="Trazado_97" data-name="Trazado 97" d="M9.16,11.017a10.513,10.513,0,0,1-9.1-5.291.434.434,0,0,1,0-.435A10.515,10.515,0,0,1,9.163,0l.185,0c5.867.1,8.794,5.077,8.916,5.289a.438.438,0,0,1,0,.435c-.121.211-3.039,5.186-8.916,5.289l-.188,0ZM.943,5.509A9.635,9.635,0,0,0,9.16,10.145l.172,0a10.073,10.073,0,0,0,8.04-4.634A10.1,10.1,0,0,0,9.332.874l-.169,0A9.639,9.639,0,0,0,.943,5.509ZM9.161,8.477a2.968,2.968,0,1,1,2.967-2.969A2.971,2.971,0,0,1,9.161,8.477m0-5.063a2.1,2.1,0,1,0,2.095,2.095A2.1,2.1,0,0,0,9.161,3.414" transform="translate(0)" fill="#fff"/>
  </g>
</svg>
