<svg xmlns="http://www.w3.org/2000/svg" width="51.673" height="44.018" viewBox="0 0 51.673 44.018">
  <g id="noun-seo-438525" transform="translate(-113.75 -78.75)">
    <path id="Trazado_6" data-name="Trazado 6" d="M164.466,78.75H114.707a.958.958,0,0,0-.957.957v34.449a.957.957,0,0,0,.957.957H138.63v5.741h-8.612a.957.957,0,0,0,0,1.914h19.138a.957.957,0,1,0,0-1.914h-8.612v-5.741h23.923a.956.956,0,0,0,.957-.957V79.707A.957.957,0,0,0,164.466,78.75Zm-.957,34.449H115.664V80.664h47.845Z" fill="#192a38"/>
    <path id="Trazado_7" data-name="Trazado 7" d="M186.619,181.56a2.867,2.867,0,0,0,2.391-1.287l10.077,2.52a2.863,2.863,0,0,0,5.714-.276,2.831,2.831,0,0,0-.208-1.057l11.251-9.847a2.834,2.834,0,0,0,1.4.378,2.871,2.871,0,1,0-2.871-2.871,2.823,2.823,0,0,0,.208,1.058l-11.252,9.846a2.828,2.828,0,0,0-1.4-.378,2.87,2.87,0,0,0-2.391,1.287l-10.077-2.52a2.863,2.863,0,1,0-2.842,3.146Z" transform="translate(-62.343 -77.93)" fill="#192a38"/>
  </g>
</svg>
