<svg xmlns="http://www.w3.org/2000/svg" width="96.72" height="32.311" viewBox="0 0 96.72 32.311">
  <path id="AFMC_Logo_Black" d="M14.038,2.066h.18l10.77,22.508H20.038l-1.787-3.918H9.972L8.251,24.574H3.3Zm2.8,15.279c-1.016-2.311-2-4.656-2.672-6.59-.639,1.541-1.82,4.492-2.738,6.59ZM35,6.377v5.3H42.4V15.59H35v8.984H30.267V2.41H43.791V6.377Zm20.721,6.754-1.164-1.016V24.59H50.037V2.066h.1L60.693,12.721,71.25,2.066h.1V24.574H66.824V12.115L65.66,13.131c-1.639,1.787-3.3,3.574-4.951,5.328C59.021,16.688,57.381,14.918,55.726,13.131Zm33.459,6.918A6.721,6.721,0,1,1,95.02,10.016h5a11.328,11.328,0,1,0,0,6.623h-5A6.694,6.694,0,0,1,89.184,20.049ZM74.168,31.623l3.77,2.688,5.623-7.9-.016-.016a11.523,11.523,0,0,1-3.8-2.59Z" transform="translate(-3.3 -2)" fill="#192a38"/>
</svg>
